<?xml version="1.0" encoding="utf-8"?>
<!-- Generator: Adobe Illustrator 18.1.1, SVG Export Plug-In . SVG Version: 6.00 Build 0)  -->
<!DOCTYPE svg PUBLIC "-//W3C//DTD SVG 1.1//EN" "http://www.w3.org/Graphics/SVG/1.1/DTD/svg11.dtd">
<svg version="1.1" xmlns="http://www.w3.org/2000/svg" xmlns:xlink="http://www.w3.org/1999/xlink" x="0px" y="0px"
	 viewBox="0 0 50 50" enable-background="new 0 0 50 50" xml:space="preserve">
<g id="c">
	<g id="_x36__2_">
		<g>
			<path fill="#34343F" d="M36,25.5c2-2.5,3.3-5.6,3.3-9c0-7.9-6.4-14.2-14.3-14.2c-7.9,0-14.3,6.4-14.3,14.2c0,3.4,1.2,6.6,3.3,9
				c-3.7,1.2-6.4,4.3-6.4,8v5.7c0,4.7,4.3,8.5,9.5,8.5h15.9c5.3,0,9.5-3.8,9.5-8.5v-5.7C42.5,29.8,39.8,26.7,36,25.5z M13.9,16.5
				c0-6.3,5-11.4,11.1-11.4s11.1,5.1,11.1,11.4s-5,11.4-11.1,11.4S13.9,22.8,13.9,16.5z M39.3,38.5c0,3.5-3.5,6.4-7.8,6.4h-13
				c-4.3,0-7.8-2.9-7.8-6.4v-4.3c0-3,2.6-5.5,6-6.2c2.3,1.7,5.2,2.7,8.3,2.7s6-1,8.3-2.7c3.4,0.7,6,3.2,6,6.2V38.5z"/>
		</g>
	</g>
</g>
<g id="c_1_" display="none">
	<g id="_x36__3_" display="inline">
		<g>
			<path fill="#FFFFFF" d="M36,25.5c2-2.5,3.3-5.6,3.3-9c0-7.9-6.4-14.2-14.3-14.2c-7.9,0-14.3,6.4-14.3,14.2c0,3.4,1.2,6.6,3.3,9
				c-3.7,1.2-6.4,4.3-6.4,8v5.7c0,4.7,4.3,8.5,9.5,8.5h15.9c5.3,0,9.5-3.8,9.5-8.5v-5.7C42.5,29.8,39.8,26.7,36,25.5z M13.9,16.5
				c0-6.3,5-11.4,11.1-11.4s11.1,5.1,11.1,11.4s-5,11.4-11.1,11.4S13.9,22.8,13.9,16.5z M39.3,38.5c0,3.5-3.5,6.4-7.8,6.4h-13
				c-4.3,0-7.8-2.9-7.8-6.4v-4.3c0-3,2.6-5.5,6-6.2c2.3,1.7,5.2,2.7,8.3,2.7s6-1,8.3-2.7c3.4,0.7,6,3.2,6,6.2V38.5z"/>
		</g>
	</g>
</g>
<g id="l_1_" display="none">
	<g id="_x31__15_" display="inline">
		<g>
			<path fill="#34343F" d="M25,2.3c-9.4,0-17.1,7.6-17.1,17.1c0,7.1,14.2,28.4,17.1,28.4c2.8,0,17.1-21.4,17.1-28.4
				C42.1,9.9,34.4,2.3,25,2.3z M25,43.5c-2.4,0-14.2-18.2-14.2-24.2c0-7.9,6.4-14.2,14.2-14.2s14.2,6.4,14.2,14.2
				C39.2,25.2,27.3,43.5,25,43.5z M25,12.2c-3.9,0-7.1,3.2-7.1,7.1s3.2,7.1,7.1,7.1s7.1-3.2,7.1-7.1S28.9,12.2,25,12.2z M25,23.6
				c-2.4,0-4.3-1.9-4.3-4.3S22.6,15,25,15s4.3,1.9,4.3,4.3S27.4,23.6,25,23.6z"/>
		</g>
	</g>
</g>
<g id="l" display="none">
	<g id="_x31__2_" display="inline">
		<g>
			<path fill="#FFFFFF" d="M25,2.3c-9.4,0-17.1,7.6-17.1,17.1c0,7.1,14.2,28.4,17.1,28.4c2.8,0,17.1-21.4,17.1-28.4
				C42.1,9.9,34.4,2.3,25,2.3z M25,43.5c-2.4,0-14.2-18.2-14.2-24.2c0-7.9,6.4-14.2,14.2-14.2s14.2,6.4,14.2,14.2
				C39.2,25.2,27.3,43.5,25,43.5z M25,12.2c-3.9,0-7.1,3.2-7.1,7.1s3.2,7.1,7.1,7.1s7.1-3.2,7.1-7.1S28.9,12.2,25,12.2z M25,23.6
				c-2.4,0-4.3-1.9-4.3-4.3S22.6,15,25,15s4.3,1.9,4.3,4.3S27.4,23.6,25,23.6z"/>
		</g>
	</g>
</g>
</svg>
